<?xml version="1.0" encoding="UTF-8"?>
<svg width="32" height="32" viewBox="0 0 32 32" fill="none" xmlns="http://www.w3.org/2000/svg">
  <defs>
    <linearGradient id="gradient" x1="0%" y1="0%" x2="100%" y2="100%">
      <stop offset="0%" style="stop-color:#98E4E1"/>
      <stop offset="100%" style="stop-color:#FF9E9E"/>
    </linearGradient>
  </defs>
  <circle cx="16" cy="16" r="14" fill="url(#gradient)" stroke="white" stroke-width="2"/>
  <path d="M16 8C19.866 8 23 11.134 23 15C23 18.866 19.866 22 16 22C12.134 22 9 18.866 9 15C9 11.134 12.134 8 16 8ZM16 10C13.239 10 11 12.239 11 15C11 17.761 13.239 20 16 20C18.761 20 21 17.761 21 15C21 12.239 18.761 10 16 10Z" fill="white"/>
</svg> 